<?xml version="1.0" encoding="utf-8"?>
<!-- Generated by IcoMoon.io -->
<!DOCTYPE svg PUBLIC "-//W3C//DTD SVG 1.1//EN" "http://www.w3.org/Graphics/SVG/1.1/DTD/svg11.dtd">
<svg version="1.1" xmlns="http://www.w3.org/2000/svg" xmlns:xlink="http://www.w3.org/1999/xlink" width="32" height="32" viewBox="0 0 32 32">
<g>
</g>
	<path d="M22 0h-12l-6 4v8h24v-8l-6-4zM20 10h-2v-1.333c0-0.367-0.3-0.667-0.667-0.667h-2.667c-0.367 0-0.667 0.3-0.667 0.667v1.333h-2v-3.333c0-0.367 0.3-0.667 0.667-0.667h6.667c0.367 0 0.667 0.3 0.667 0.667v3.333zM4 22h24v-8h-24v8zM12 16.667c0-0.367 0.3-0.667 0.667-0.667h6.667c0.367 0 0.667 0.3 0.667 0.667v3.333h-2v-1.333c0-0.367-0.3-0.667-0.667-0.667h-2.667c-0.367 0-0.667 0.3-0.667 0.667v1.333h-2v-3.333zM4 32h24v-8h-24v8zM12 26.667c0-0.367 0.3-0.667 0.667-0.667h6.667c0.367 0 0.667 0.3 0.667 0.667v3.333h-2v-1.333c0-0.367-0.3-0.667-0.667-0.667h-2.667c-0.367 0-0.667 0.3-0.667 0.667v1.333h-2v-3.333z" fill="#000000" />
</svg>
